<?xml version="1.0" standalone="no"?>
<!DOCTYPE svg PUBLIC "-//W3C//DTD SVG 20010904//EN"
 "http://www.w3.org/TR/2001/REC-SVG-20010904/DTD/svg10.dtd">
<svg version="1.0" xmlns="http://www.w3.org/2000/svg"
 width="513.000000pt" height="513.000000pt" viewBox="0 0 513.000000 513.000000"
 preserveAspectRatio="xMidYMid meet">

<g transform="translate(0.000000,513.000000) scale(0.100000,-0.100000)"
fill="#000000" stroke="none">
<path d="M2300 5114 c-180 -18 -417 -69 -590 -129 -639 -223 -1132 -662 -1436
-1280 -137 -280 -224 -583 -255 -889 -19 -190 -7 -538 24 -716 91 -517 321
-953 702 -1335 423 -423 934 -668 1523 -730 672 -72 1315 93 1809 461 522 391
870 922 993 1514 53 256 70 622 41 870 -67 574 -290 1049 -683 1456 -343 354
-728 582 -1184 699 -223 58 -376 76 -654 80 -135 1 -265 1 -290 -1z m445 -315
c460 -39 928 -239 1292 -553 312 -268 541 -629 657 -1033 149 -518 103 -1132
-120 -1613 l-47 -100 -32 47 c-64 95 -120 133 -370 249 -51 23 -84 33 -153 48
-37 8 -93 25 -124 39 -48 21 -69 25 -138 23 -72 -2 -79 -1 -57 10 20 11 57 54
57 67 0 5 -110 -12 -120 -18 -11 -7 -24 14 -48 78 -23 62 -22 73 3 30 15 -27
16 -27 9 -3 -3 14 -15 34 -25 46 -24 26 -24 55 1 87 26 33 26 36 -15 53 -29
12 -34 19 -30 37 52 224 75 439 74 692 -1 206 -20 315 -99 555 -10 30 -112
242 -175 361 -35 67 -68 110 -143 187 -204 208 -342 276 -590 289 -77 4 -136
2 -160 -5 -20 -6 -66 -18 -102 -27 -169 -42 -285 -117 -420 -274 -174 -202
-304 -527 -351 -879 -9 -67 -10 -159 -4 -335 12 -364 12 -354 -18 -417 -14
-30 -49 -91 -77 -135 -59 -92 -118 -212 -150 -305 -13 -36 -31 -72 -41 -81
-10 -9 -16 -19 -13 -22 3 -3 -14 -11 -38 -17 -76 -21 -102 -33 -147 -67 -25
-19 -56 -36 -70 -40 -23 -5 -108 -41 -178 -75 -34 -17 -126 -102 -154 -142
-13 -20 -27 -36 -30 -36 -9 0 -93 183 -124 270 -37 105 -82 293 -102 429 -21
144 -23 493 -4 631 69 506 267 926 600 1273 181 188 373 327 632 456 365 182
743 255 1144 220z m-385 -704 c-14 -7 -27 -11 -30 -9 -6 7 22 24 40 23 9 0 5
-6 -10 -14z m146 -11 c34 -16 110 -16 174 1 16 4 13 1 -9 -9 -18 -9 -45 -16
-60 -16 -25 -1 -26 -1 -6 -16 19 -15 18 -16 -22 -11 -24 3 -43 2 -43 -3 0 -7
46 -16 135 -27 22 -2 41 -8 43 -13 2 -5 19 -12 38 -16 19 -3 36 -10 39 -14 3
-4 -12 -4 -33 2 -54 13 -172 28 -282 34 -52 3 -110 7 -127 10 -60 9 -34 20 44
20 45 -1 82 4 92 11 9 7 14 13 11 13 -3 1 -14 4 -25 6 -11 3 -36 6 -55 6 -31
0 -33 1 -17 13 18 13 18 13 0 18 -10 3 2 5 25 6 24 0 59 -6 78 -15z m-246 -24
c-8 -5 -19 -10 -25 -10 -5 0 -3 5 5 10 8 5 20 10 25 10 6 0 3 -5 -5 -10z m263
-103 c-16 -7 -27 -6 -39 4 -15 12 -14 14 3 20 10 3 27 2 38 -4 19 -10 19 -10
-2 -20z m-193 13 c0 -18 -34 -29 -52 -16 -10 7 -15 16 -11 19 10 11 63 8 63
-3z m-200 -25 c10 -12 10 -18 0 -30 -7 -8 -18 -15 -25 -15 -7 0 -18 7 -25 15
-10 12 -10 18 0 30 7 8 18 15 25 15 7 0 18 -7 25 -15z m584 9 c9 -3 16 -10 16
-15 0 -15 -37 -10 -50 6 -10 12 -10 15 3 15 8 0 22 -3 31 -6z m182 -52 c-10
-2 -26 3 -35 12 -15 15 -13 16 19 4 26 -9 30 -13 16 -16z m-371 -52 c8 -13
-12 -40 -29 -40 -22 0 -39 18 -33 34 7 18 52 22 62 6z m-204 -16 c11 -14 10
-18 -6 -30 -24 -18 -30 -18 -45 1 -10 12 -10 18 0 30 16 19 34 19 51 -1z m394
2 c16 -12 17 -16 6 -30 -7 -9 -19 -16 -26 -16 -19 0 -38 28 -31 45 7 19 26 19
51 1z m200 -67 c0 -20 -30 -22 -49 -3 -13 13 -14 19 -5 30 10 13 15 13 33 1
12 -8 21 -21 21 -28z m-780 12 c0 -22 -32 -38 -46 -24 -9 9 -9 16 1 28 15 19
45 16 45 -4z m925 -72 c0 -24 -26 -25 -39 -1 -7 13 -6 23 1 30 15 15 38 -3 38
-29z m-1080 12 c0 -10 -7 -24 -15 -31 -12 -10 -16 -9 -21 4 -6 16 11 46 27 46
5 0 9 -8 9 -19z m525 -26 c0 -23 -30 -32 -51 -14 -11 9 -12 15 -2 26 17 20 53
12 53 -12z m-206 2 c8 -11 6 -18 -9 -32 -20 -18 -21 -18 -38 -1 -16 16 -16 18
2 32 24 17 31 18 45 1z m406 -3 c12 -12 13 -19 4 -30 -16 -19 -33 -18 -52 4
-13 14 -14 21 -5 30 16 16 34 15 53 -4z m189 -43 c20 -22 14 -41 -13 -41 -28
0 -46 26 -31 45 16 20 23 19 44 -4z m-776 -7 c-4 -24 -35 -41 -48 -28 -8 8 -7
16 5 28 21 21 47 21 43 0z m527 -19 c163 -25 289 -63 357 -108 28 -19 33 -29
36 -69 3 -40 -1 -49 -24 -67 -23 -18 -24 -21 -8 -21 11 0 38 -19 62 -41 46
-44 46 -53 -3 -99 -22 -20 -29 -22 -43 -12 -39 28 -102 52 -169 63 -61 10 -77
9 -122 -6 -28 -9 -53 -21 -57 -26 -3 -5 17 -1 43 10 41 16 61 18 122 11 39 -4
75 -11 79 -15 4 -4 -13 -5 -36 -2 -52 6 -134 -13 -162 -38 -32 -29 -15 -30 34
-1 l46 27 -6 -29 c-5 -23 -1 -33 21 -51 35 -26 45 -26 80 0 19 16 26 28 22 45
-3 15 1 24 8 24 14 0 65 -55 65 -70 0 -4 -18 -37 -39 -73 -22 -35 -46 -81 -55
-101 -16 -39 -21 -39 -86 -3 -19 11 -80 45 -134 75 -132 74 -177 79 -309 31
-50 -18 -112 -45 -137 -61 -37 -22 -305 -118 -332 -118 -5 0 -8 27 -8 60 0 37
-8 79 -21 112 -19 49 -20 59 -9 128 14 84 46 148 87 176 l28 18 -24 6 c-15 3
-28 16 -34 34 -8 24 -5 32 19 57 15 15 64 46 109 68 78 38 99 44 280 70 95 14
212 12 320 -4z m405 -65 c0 -11 -4 -20 -8 -20 -14 0 -32 24 -32 42 0 16 3 17
20 8 11 -6 20 -20 20 -30z m-1080 11 c0 -24 -26 -47 -33 -29 -5 16 10 48 23
48 6 0 10 -8 10 -19z m-210 -61 c-6 -11 -13 -20 -16 -20 -2 0 0 9 6 20 6 11
13 20 16 20 2 0 0 -9 -6 -20z m1390 -30 c0 -12 -3 -12 -16 2 -9 9 -13 21 -9
28 9 14 25 -5 25 -30z m-1289 -13 c-8 -8 -11 -7 -11 4 0 20 13 34 18 19 3 -7
-1 -17 -7 -23z m-112 -41 c-20 -122 -35 -171 -55 -174 -17 -3 -18 -2 -2 11 17
14 40 112 33 146 -2 12 0 21 6 21 5 0 9 8 9 18 0 16 8 32 15 32 1 0 -2 -24 -6
-54z m1561 -10 c0 -16 -18 -31 -27 -22 -8 8 5 36 17 36 5 0 10 -6 10 -14z
m-173 -68 c-3 -7 -5 -2 -5 12 0 14 2 19 5 13 2 -7 2 -19 0 -25z m-1278 -2 c8
-10 9 -16 1 -21 -13 -8 -30 3 -30 21 0 18 14 18 29 0z m-42 -48 c-3 -8 -6 -5
-6 6 -1 11 2 17 5 13 3 -3 4 -12 1 -19z m1417 -4 c8 -22 -4 -40 -15 -23 -11
18 -11 39 0 39 5 0 12 -7 15 -16z m-166 -196 c-16 -35 -43 -83 -59 -108 -50
-80 -61 -124 -62 -255 0 -66 -2 -109 -4 -95 -2 14 -13 65 -25 113 -24 102 -21
134 21 221 27 57 132 186 151 186 5 0 -5 -28 -22 -62z m137 52 c3 -6 -1 -7 -9
-4 -18 7 -21 14 -7 14 6 0 13 -4 16 -10z m253 -60 c0 -9 -3 -7 -8 5 -5 11 -8
29 -8 40 0 16 2 15 8 -5 4 -14 8 -32 8 -40z m-1597 -42 c6 -11 6 -18 0 -18 -5
0 -14 14 -20 31 -14 40 -13 63 1 29 5 -14 14 -33 19 -42z m856 -39 l163 -84
-6 -55 c-5 -46 0 -75 26 -160 18 -58 36 -139 40 -180 l7 -75 3 70 2 70 9 -60
c7 -45 5 -75 -8 -125 -18 -74 -51 -143 -64 -135 -4 3 -11 -7 -15 -22 -8 -31
-98 -197 -122 -226 -27 -31 -103 -67 -184 -87 -67 -17 -90 -18 -150 -10 -173
25 -307 130 -372 291 -14 36 -26 72 -26 80 0 8 -20 55 -44 105 -24 49 -47 100
-51 114 -4 14 -17 39 -30 55 -26 36 -55 118 -55 158 0 16 9 40 20 54 11 14 20
33 20 42 0 9 -11 -1 -23 -22 -19 -30 -26 -36 -34 -25 -23 27 -25 67 -7 120 14
40 19 47 22 30 2 -12 -2 -38 -8 -57 -7 -20 -8 -44 -4 -57 7 -20 9 -18 14 17
l5 40 70 17 c101 25 268 84 355 125 139 66 192 83 240 79 32 -3 93 -29 207
-87z m-1137 66 c-7 -8 -18 -15 -24 -15 -6 0 -2 7 8 15 25 19 32 19 16 0z m120
11 c0 -3 -4 -8 -10 -11 -5 -3 -10 -1 -10 4 0 6 5 11 10 11 6 0 10 -2 10 -4z
m1420 -30 c0 -24 -11 -49 -37 -83 -20 -26 -29 -42 -20 -34 24 19 21 11 -8 -29
l-25 -34 0 30 -1 29 -15 -28 c-9 -16 -22 -57 -30 -90 l-14 -62 3 61 c2 43 12
78 32 118 29 58 62 97 49 60 -3 -10 8 1 25 26 17 25 31 51 31 58 0 6 2 12 5
12 3 0 5 -15 5 -34z m64 -131 c4 -104 1 -140 -12 -177 -14 -42 -19 -47 -39
-42 -17 5 -34 -4 -70 -35 -25 -23 -51 -40 -56 -38 -15 5 -19 44 -12 115 6 52
13 69 42 105 20 23 49 64 66 90 16 26 32 46 34 43 9 -9 -46 -116 -59 -116 -10
0 -10 -2 0 -9 10 -6 9 -10 -7 -14 -12 -3 -21 -11 -21 -17 0 -10 3 -10 14 -1 9
8 33 10 63 7 26 -3 39 -3 28 1 -11 3 -30 9 -43 14 l-23 9 19 25 c11 14 31 59
43 100 13 41 24 73 25 72 2 -1 5 -61 8 -132z m-1634 85 c-7 -17 -15 -28 -18
-26 -2 3 1 19 8 36 7 17 15 28 18 26 2 -3 -1 -19 -8 -36z m319 -101 c-15 -29
-18 -21 -11 36 5 50 6 50 14 17 6 -21 5 -40 -3 -53z m-57 29 c-10 -22 -11 -21
-11 12 -1 26 2 31 11 22 8 -8 8 -17 0 -34z m1471 -12 c3 -8 2 -27 -2 -43 -8
-27 -8 -26 -12 15 -4 41 3 56 14 28z m-1546 -38 c-3 -7 -5 -2 -5 12 0 14 2 19
5 13 2 -7 2 -19 0 -25z m-120 -10 c-3 -7 -5 -2 -5 12 0 14 2 19 5 13 2 -7 2
-19 0 -25z m1762 -165 c1 -36 -3 -63 -9 -63 -6 0 -10 30 -10 69 0 37 -2 97 -5
132 l-5 64 14 -70 c8 -38 15 -98 15 -132z m-1591 -42 c7 -19 8 -30 3 -25 -17
19 -31 79 -29 128 l1 51 7 -60 c4 -33 12 -75 18 -94z m-248 82 c-11 -17 -11
-17 -6 0 3 10 7 28 7 40 2 22 2 22 6 0 2 -12 -1 -30 -7 -40z m1797 -10 c-3
-10 -5 -4 -5 12 0 17 2 24 5 18 2 -7 2 -21 0 -30z m126 -63 c3 -11 1 -18 -4
-14 -5 3 -9 12 -9 20 0 20 7 17 13 -6z m-464 -112 c2 -36 21 -27 27 12 6 39
19 58 31 46 3 -3 -2 -26 -11 -51 -24 -60 -48 -60 -64 0 -17 63 -14 103 3 50 8
-22 14 -48 14 -57z m123 60 c-6 -25 -62 -98 -75 -98 -11 0 18 52 49 89 31 37
34 38 26 9z m-1 -75 c-12 -20 -14 -14 -5 12 4 9 9 14 11 11 3 -2 0 -13 -6 -23z
m-31 -13 c-6 -11 -13 -20 -16 -20 -2 0 0 9 6 20 6 11 13 20 16 20 2 0 0 -9 -6
-20z m-1125 -158 c4 -20 25 -72 47 -116 22 -44 34 -75 26 -68 -24 19 -68 108
-93 185 -12 40 -26 81 -29 92 -4 11 4 3 17 -19 14 -21 28 -54 32 -74z m-454
25 c-10 -9 -11 -8 -5 6 3 10 9 15 12 12 3 -3 0 -11 -7 -18z m1509 -9 c0 -7 -5
-20 -10 -28 -8 -12 -10 -9 -10 13 0 15 5 27 10 27 6 0 10 -6 10 -12z m440 -8
c-6 -11 -13 -20 -16 -20 -2 0 0 9 6 20 6 11 13 20 16 20 2 0 0 -9 -6 -20z
m-1673 -42 c-3 -8 -6 -5 -6 6 -1 11 2 17 5 13 3 -3 4 -12 1 -19z m-245 -70
c-6 -6 -7 0 -4 19 5 21 7 23 10 9 2 -10 0 -22 -6 -28z m334 5 c-8 -15 -15 -25
-16 -21 0 12 23 58 27 54 3 -2 -2 -17 -11 -33z m-450 -22 c-12 -27 -29 -59
-38 -72 -19 -31 -58 -135 -58 -157 0 -9 11 14 25 52 13 37 27 71 30 75 9 8 0
-149 -12 -216 -5 -29 -13 -56 -17 -60 -10 -10 -1 93 13 161 6 27 9 51 7 53 -7
7 -36 -102 -36 -134 -1 -35 -31 -73 -59 -73 -11 0 -23 -4 -26 -10 -3 -5 -16
-10 -28 -10 -20 0 -19 2 7 15 15 8 35 15 42 15 12 0 12 4 4 20 -17 31 50 221
111 314 27 42 51 76 54 76 2 0 -6 -22 -19 -49z m40 0 c-8 -22 -13 -46 -11 -54
3 -7 -3 -40 -14 -72 -10 -33 -19 -53 -20 -44 -1 9 6 36 14 59 18 50 19 64 5
55 -14 -9 -13 0 11 56 26 58 39 58 15 0z m1524 22 c0 -10 -35 -54 -77 -98 -77
-81 -81 -83 -26 -10 17 22 34 50 38 62 5 19 49 63 61 63 2 0 4 -8 4 -17z
m-1410 -53 c0 -8 11 -39 25 -68 13 -28 27 -69 30 -90 l5 -37 -15 39 c-8 21
-19 44 -24 50 -10 13 -41 117 -41 138 0 19 20 -12 20 -32z m1730 -5 c0 -7 -11
-20 -24 -29 -23 -15 -25 -14 -31 5 -4 11 -4 23 -1 26 3 4 6 -1 6 -10 0 -9 4
-17 10 -17 5 0 7 8 4 18 -5 15 -4 15 6 2 9 -12 10 -9 5 14 -5 26 -4 28 9 17 9
-8 16 -19 16 -26z m136 -51 c4 -22 2 -40 -6 -49 -11 -13 -17 -8 -44 37 l-31
53 -3 -48 c-4 -56 -22 -54 -22 3 0 25 5 40 16 44 21 8 31 1 56 -38 19 -30 20
-30 14 -4 -3 14 -9 34 -13 45 -6 16 -5 16 10 4 9 -7 19 -28 23 -47z m-1973
-29 c-9 -19 -18 -33 -21 -31 -4 5 26 66 33 66 3 0 -3 -16 -12 -35z m113 -85
l5 -35 -16 40 c-8 22 -14 56 -14 75 l1 35 10 -40 c5 -22 11 -56 14 -75z m-175
63 c-8 -15 -10 -15 -11 -2 0 17 10 32 18 25 2 -3 -1 -13 -7 -23z m2088 -5 c10
-30 9 -31 -4 -14 -8 11 -15 26 -15 33 0 22 8 14 19 -19z m-1609 -53 c0 -5 -9
4 -20 20 -11 17 -20 35 -20 40 0 6 9 -3 20 -20 11 -16 20 -34 20 -40z m1040
62 c0 -2 -15 -16 -32 -33 -27 -24 -29 -25 -13 -4 24 30 45 47 45 37z m-1263
-29 c-3 -8 -6 -5 -6 6 -1 11 2 17 5 13 3 -3 4 -12 1 -19z m1807 0 c7 -29 8
-53 1 -46 -11 10 -23 68 -15 68 4 0 10 -10 14 -22z m-504 3 c0 -12 -80 -101
-91 -101 -8 0 80 109 89 110 1 0 2 -4 2 -9z m-1526 -93 c-7 -68 -9 -77 -15
-48 l-6 35 -3 -30 c-1 -20 -4 -24 -7 -12 -5 19 27 151 34 143 3 -2 1 -42 -3
-88z m23 25 c-3 -10 -5 -2 -5 17 0 19 2 27 5 18 2 -10 2 -26 0 -35z m1342 20
c-11 -33 -58 -93 -59 -76 0 7 -18 1 -42 -16 -24 -16 -47 -27 -51 -24 -10 6 71
55 91 56 7 0 20 14 29 31 28 57 48 74 32 29z m-1013 -88 c16 -61 13 -88 -4
-33 -14 45 -24 103 -16 96 3 -3 12 -32 20 -63z m1074 62 c0 -2 -19 -21 -41
-42 l-42 -40 28 43 c15 23 34 42 41 42 8 0 14 -1 14 -3z m219 0 c-2 -1 -15
-11 -29 -22 l-25 -20 19 23 c11 12 24 22 29 22 6 0 8 -1 6 -3z m411 -38 c0
-11 -4 -17 -10 -14 -5 3 -10 13 -10 21 0 8 5 14 10 14 6 0 10 -9 10 -21z
m-1801 -34 c0 -5 -4 -3 -9 5 -5 8 -9 22 -9 30 0 16 17 -16 18 -35z m325 19 c3
-8 2 -12 -4 -9 -6 3 -10 10 -10 16 0 14 7 11 14 -7z m255 -20 c14 -12 -19 -1
-35 12 -18 14 -18 14 6 3 14 -6 27 -13 29 -15z m1379 -2 c9 -6 5 -12 -13 -20
-36 -17 -45 -14 -15 4 14 9 17 13 7 10 -11 -4 -31 -8 -45 -11 -26 -5 -26 -5 3
9 35 17 45 19 63 8z m-853 -63 c-29 -57 -51 -75 -30 -24 9 19 13 35 10 35 -3
0 -1 8 4 18 6 10 17 19 25 19 12 0 10 -10 -9 -48z m147 -46 l-10 -48 0 70 c-1
56 1 66 10 48 7 -15 7 -37 0 -70z m-1562 -16 c-17 -58 -21 -40 -7 34 9 49 13
57 15 34 2 -16 -1 -47 -8 -68z m2166 41 c-8 -59 -26 -102 -56 -138 l-21 -25
19 40 c19 38 34 88 47 148 10 47 18 29 11 -25z m-2100 -23 c-37 -47 -43 -44
-10 5 15 22 29 38 32 35 3 -2 -7 -20 -22 -40z m889 -24 c-5 -4 24 -61 31 -61
2 0 0 9 -6 19 -15 30 -12 36 9 17 11 -10 21 -32 23 -50 l4 -31 12 25 c12 24
12 24 8 2 -3 -14 1 -25 10 -29 16 -6 19 -53 3 -53 -5 0 -7 -4 -4 -10 3 -5 11
-10 16 -10 6 0 7 5 4 10 -3 6 -2 10 3 10 6 0 13 12 17 28 l8 27 7 -25 c5 -14
8 -20 9 -14 1 6 13 16 29 23 l27 12 -25 -24 c-14 -14 -33 -34 -43 -46 -21 -26
-36 -23 -122 26 -57 32 -44 37 19 7 36 -17 41 -18 27 -1 -8 10 -7 17 1 25 8 8
2 10 -24 6 -28 -5 -40 -1 -64 19 -27 24 -29 30 -29 96 l0 71 27 -32 c14 -18
25 -35 23 -37z m23 29 c22 -45 7 -38 -21 9 -10 17 -14 31 -9 31 6 0 19 -18 30
-40z m1012 21 c0 -4 -7 -16 -15 -27 -13 -18 -14 -18 -8 5 5 19 3 22 -8 16 -12
-8 -12 -6 0 8 12 16 31 15 31 -2z m-1853 -34 c-8 -19 -21 -38 -28 -42 -6 -5
-10 -4 -7 1 3 5 13 26 23 47 22 47 32 42 12 -6z m493 14 c-10 -20 -30 -37 -30
-26 0 11 25 45 33 45 4 0 3 -9 -3 -19z m449 -74 l-2 -32 -4 29 c-3 16 -16 46
-30 65 l-26 36 32 -33 c23 -24 31 -41 30 -65z m947 7 c-3 -7 -12 -11 -21 -8
-13 5 -13 10 3 36 16 27 17 28 20 8 2 -12 1 -28 -2 -36z m-918 -15 c-3 -33 -4
-33 -8 8 -3 23 -2 39 3 34 5 -5 7 -24 5 -42z m53 14 c-9 -16 -10 -14 -11 12 0
21 3 26 11 18 8 -8 8 -16 0 -30z m682 -7 c-4 -25 -9 -34 -16 -27 -7 7 -6 20 3
41 16 39 21 34 13 -14z m-516 -63 c-2 -16 -4 -3 -4 27 0 30 2 43 4 28 2 -16 2
-40 0 -55z m467 41 c3 -8 2 -12 -4 -9 -6 3 -10 10 -10 16 0 14 7 11 14 -7z
m-550 -16 c-1 -10 5 -14 16 -11 33 9 35 -43 4 -154 -2 -7 -11 -13 -21 -13 -17
1 -17 1 0 11 9 5 17 19 17 30 l0 21 -34 -21 c-44 -27 -90 -25 -125 5 -2 2 24
33 58 69 33 36 61 70 61 76 0 6 6 9 13 6 6 -2 11 -11 11 -19z m-875 -44 c10
-9 -56 -3 -69 7 -11 7 -4 8 25 3 22 -4 42 -8 44 -10z m-61 -23 c29 -25 28 -29
-4 -23 -19 3 -25 1 -20 -7 5 -7 -2 -11 -19 -11 -24 0 -25 1 -10 16 9 9 14 23
11 30 -8 20 15 17 42 -5z m1855 -38 c-13 -2 -33 -2 -45 0 -13 2 -3 4 22 4 25
0 35 -2 23 -4z m-1843 -38 c11 -13 8 -15 -18 -15 -43 0 -68 10 -50 21 21 14
54 10 68 -6z m300 -9 l24 -14 -32 2 c-35 2 -71 26 -36 26 10 -1 30 -7 44 -14z
m1130 -32 c0 -2 -9 0 -20 6 -11 6 -20 13 -20 16 0 2 9 0 20 -6 11 -6 20 -13
20 -16z m-1130 -5 c0 -6 -4 -7 -10 -4 -5 3 -10 11 -10 16 0 6 5 7 10 4 6 -3
10 -11 10 -16z m936 -4 c16 -12 16 -14 3 -15 -9 0 -22 7 -29 15 -16 19 0 19
26 0z m-1041 -25 c-16 -16 -32 -30 -37 -30 -8 0 53 59 61 60 3 0 -8 -13 -24
-30z m1230 10 c4 -7 -3 -8 -22 -4 -38 9 -42 14 -10 14 14 0 29 -5 32 -10z
m-1462 -7 c-7 -2 -21 -2 -30 0 -10 3 -4 5 12 5 17 0 24 -2 18 -5z m998 -30
c17 -53 36 -83 78 -121 37 -35 27 -34 -22 2 -30 22 -59 71 -71 118 -4 19 -14
28 -34 31 -26 4 -25 4 5 6 28 1 33 -3 44 -36z m449 17 c12 -8 12 -10 -5 -10
-11 0 -27 5 -35 10 -12 8 -12 10 5 10 11 0 27 -5 35 -10z m-412 -25 c-3 -3 -9
2 -12 12 -6 14 -5 15 5 6 7 -7 10 -15 7 -18z m-423 -17 c-10 -48 -22 -55 -20
-11 3 45 2 43 16 43 7 0 8 -12 4 -32z m-274 2 c-22 -19 -51 -27 -51 -15 0 6
59 34 70 34 3 0 -6 -9 -19 -19z m806 -12 c-3 -8 -6 -5 -6 6 -1 11 2 17 5 13 3
-3 4 -12 1 -19z m-1076 -6 c-7 -2 -18 1 -23 6 -8 8 -4 9 13 5 13 -4 18 -8 10
-11z m419 -22 c-12 -23 -30 -18 -30 8 0 14 2 14 9 3 7 -11 11 -8 16 10 5 13
10 19 12 12 2 -7 -1 -21 -7 -33z m-303 24 c-3 -3 -12 -4 -19 -1 -8 3 -5 6 6 6
11 1 17 -2 13 -5z m193 -9 c-7 -8 -20 -15 -28 -15 -13 0 -12 3 4 15 25 19 40
19 24 0z m1276 -10 c-11 -8 -25 -15 -30 -15 -6 1 0 7 14 15 32 19 40 18 16 0z
m-258 -4 c11 -6 10 -10 -4 -15 -10 -4 -24 0 -33 9 -14 13 -13 15 4 15 11 0 26
-4 33 -9z m-1667 -38 c13 -16 12 -17 -3 -4 -17 13 -22 21 -14 21 2 0 10 -8 17
-17z m155 3 c13 3 27 -3 39 -17 l20 -22 -22 12 c-30 16 -42 13 -19 -4 17 -13
18 -15 3 -15 -9 0 -31 14 -49 31 -21 19 -25 27 -12 20 11 -5 30 -8 40 -5z
m-56 -45 c-1 -13 -4 -12 -15 3 -8 11 -15 27 -15 35 1 13 4 12 15 -3 8 -11 15
-27 15 -35z m1070 -81 c-9 -21 -10 -17 -5 24 3 27 6 63 7 80 1 17 3 6 5 -24 2
-31 -1 -67 -7 -80z m343 53 c-7 -2 -19 -2 -25 0 -7 3 -2 5 12 5 14 0 19 -2 13
-5z m-959 -28 l31 5 -30 -11 c-32 -11 -85 1 -85 20 0 5 12 4 27 -4 14 -8 40
-12 57 -10z m1442 4 c3 -6 -1 -18 -10 -27 -15 -15 -16 -14 -16 11 0 27 13 36
26 16z m-526 -55 c0 -32 -4 -44 -15 -44 -17 0 -20 16 -5 25 16 10 12 38 -5 32
-12 -5 -12 -2 -3 18 16 35 28 21 28 -31z m-724 -40 c-4 -13 -11 -24 -17 -24
-8 0 -7 5 1 15 7 8 10 27 7 42 -3 15 -2 34 2 42 8 21 14 -44 7 -75z m-406 36
c0 -16 -4 -30 -8 -30 -5 0 -7 14 -4 30 2 17 6 30 8 30 2 0 4 -13 4 -30z m510
6 c0 -13 -6 -26 -14 -29 -12 -5 -13 -1 -4 24 12 35 18 37 18 5z m1060 21 c0
-2 -11 -14 -25 -27 -27 -25 -35 -12 -9 14 14 14 34 22 34 13z m-906 -43 c9 -8
14 -20 10 -25 -7 -12 -40 6 -48 26 -7 20 18 20 38 -1z m709 -19 c-3 -9 -8 -14
-10 -11 -3 3 -2 9 2 15 9 16 15 13 8 -4z m-1159 -32 c-8 -39 11 -81 42 -95 21
-10 34 -9 68 3 l43 15 36 -40 c20 -23 42 -47 49 -54 11 -11 10 -12 -5 -6 -10
3 -33 26 -51 50 -29 38 -35 42 -46 29 -16 -20 -89 -19 -117 0 -24 17 -39 71
-28 104 9 30 15 26 9 -6z m646 -37 c0 -31 -28 -40 -78 -23 l-47 16 55 -2 c47
-2 55 1 54 15 -1 10 2 15 7 12 5 -3 9 -11 9 -18z m-569 -34 c18 3 26 1 20 -5
-16 -16 -56 -4 -57 18 -1 17 0 17 3 1 4 -14 12 -17 34 -14z m1270 -69 c13 -16
12 -17 -3 -4 -10 7 -18 15 -18 17 0 8 8 3 21 -13z m-396 -3 c-3 -5 2 -10 11
-10 10 0 15 -3 11 -6 -9 -9 -48 6 -42 17 4 5 11 9 16 9 6 0 7 -4 4 -10z m-575
-10 c-8 -5 -35 -9 -60 -8 l-45 1 50 7 c28 4 55 7 60 8 6 1 3 -3 -5 -8z m673
-7 c-7 -2 -21 -2 -30 0 -10 3 -4 5 12 5 17 0 24 -2 18 -5z m-208 -13 c3 -6 -1
-7 -9 -4 -18 7 -21 14 -7 14 6 0 13 -4 16 -10z m188 -37 c-7 -2 -21 -2 -30 0
-10 3 -4 5 12 5 17 0 24 -2 18 -5z m175 -30 c-10 -2 -28 -2 -40 0 -13 2 -5 4
17 4 22 1 32 -1 23 -4z"/>
<path d="M1493 2790 c0 -36 2 -50 4 -32 2 17 2 47 0 65 -2 17 -4 3 -4 -33z"/>
<path d="M3611 2020 c-8 -4 -1 -10 20 -14 40 -8 47 -3 16 11 -13 6 -29 8 -36
3z"/>
<path d="M3710 1950 c0 -6 7 -10 15 -10 8 0 15 2 15 4 0 2 -7 6 -15 10 -8 3
-15 1 -15 -4z"/>
<path d="M958 1803 c7 -3 16 -2 19 1 4 3 -2 6 -13 5 -11 0 -14 -3 -6 -6z"/>
<path d="M2305 3599 c-105 -11 -206 -39 -285 -79 -74 -38 -87 -53 -70 -85 17
-32 22 -31 83 6 28 17 66 33 86 36 20 2 57 13 83 24 26 10 57 19 70 19 l22 0
-22 16 c-18 13 -21 19 -11 30 13 16 55 19 64 4 4 -6 1 -17 -5 -25 -11 -13 -6
-15 31 -16 96 -2 245 -7 254 -9 6 -1 1 -5 -10 -10 -11 -5 -14 -9 -7 -9 7 -1
21 3 31 8 19 11 164 -15 254 -45 37 -12 47 -20 42 -33 -3 -11 4 -20 25 -30 43
-18 62 -1 58 53 l-3 41 -90 33 c-49 19 -128 42 -175 53 -103 23 -302 31 -425
18z m129 -18 c4 -5 18 -5 35 2 23 8 33 8 46 -3 14 -12 15 -15 0 -29 -12 -12
-21 -13 -43 -5 -22 8 -33 8 -47 -2 -12 -9 -23 -10 -36 -4 -9 6 -26 7 -36 4
-12 -4 -9 2 10 20 28 26 61 34 71 17z m150 2 c4 -4 23 -8 43 -10 20 -1 40 -6
45 -11 11 -11 -1 -44 -13 -36 -5 3 -31 8 -57 10 -52 5 -68 15 -59 38 7 17 28
21 41 9z"/>
<path d="M2859 3435 c18 -8 36 -15 40 -15 13 1 -45 29 -59 29 -8 0 0 -6 19
-14z"/>
<path d="M2080 3363 c-71 -37 -78 -42 -45 -36 55 11 170 7 195 -7 12 -6 24 -9
27 -6 11 11 -67 36 -114 37 -70 1 -25 17 50 18 41 1 59 -3 63 -13 3 -8 11 -17
19 -19 10 -4 9 2 -3 26 -8 18 -20 35 -26 39 -24 17 -86 2 -166 -39z"/>
<path d="M2728 3383 c-16 -4 -16 -6 -4 -19 9 -9 37 -14 78 -15 35 0 72 -4 83
-9 12 -6 -7 -7 -51 -3 -39 3 -74 2 -77 -3 -3 -5 19 -9 48 -10 30 0 86 -7 124
-14 50 -9 77 -10 93 -3 20 9 16 12 -37 23 -33 7 -83 23 -111 35 -47 21 -105
28 -146 18z m265 -70 c-7 -2 -21 -2 -30 0 -10 3 -4 5 12 5 17 0 24 -2 18 -5z"/>
<path d="M1956 3341 c-4 -5 3 -7 14 -4 23 6 26 13 6 13 -8 0 -17 -4 -20 -9z"/>
<path d="M2270 3305 c0 -2 10 -10 23 -16 20 -11 21 -11 8 4 -13 16 -31 23 -31
12z"/>
<path d="M2133 3293 c9 -2 23 -2 30 0 6 3 -1 5 -18 5 -16 0 -22 -2 -12 -5z"/>
<path d="M2095 3274 c-57 -13 -103 -37 -115 -58 -22 -43 -7 -49 40 -17 52 36
64 38 55 13 -8 -28 31 -72 64 -72 30 0 61 27 61 53 0 21 23 22 40 1 17 -20 -2
-40 -56 -59 l-39 -14 51 -1 c27 0 54 4 60 9 5 5 20 11 34 14 24 4 24 4 -3 6
-27 1 -27 2 -11 18 15 16 15 18 -12 39 -34 27 -111 39 -198 31 -74 -8 -56 6
28 22 53 10 66 8 129 -14 82 -28 99 -27 30 3 -51 21 -125 34 -158 26z"/>
<path d="M3010 3256 c0 -2 8 -10 18 -17 15 -13 16 -12 3 4 -13 16 -21 21 -21
13z"/>
<path d="M1991 3157 c-6 -8 -8 -17 -4 -21 4 -4 -1 -4 -12 -1 -20 6 -20 6 -1
-9 22 -18 36 -13 36 15 0 18 2 19 30 4 43 -22 61 -18 22 5 -38 23 -55 25 -71
7z"/>
<path d="M2562 3150 c0 -14 2 -19 5 -12 2 6 2 18 0 25 -3 6 -5 1 -5 -13z"/>
<path d="M2710 3160 c24 -8 24 -8 -7 -9 -17 -1 -34 -5 -38 -10 -3 -6 4 -8 16
-6 13 3 29 0 36 -7 7 -6 45 -13 83 -16 48 -3 70 -9 70 -18 0 -7 4 -16 10 -19
5 -3 7 0 4 9 -4 10 9 21 42 35 59 27 51 39 -11 16 -40 -16 -53 -16 -100 -6
-29 7 -59 19 -65 27 -7 7 -24 14 -39 13 l-26 -1 25 -8z"/>
<path d="M1870 3119 c0 -13 5 -31 10 -39 7 -11 8 -5 4 20 -8 43 -14 51 -14 19z"/>
<path d="M2085 3105 c24 -8 116 -12 103 -4 -7 5 -35 8 -63 8 -27 0 -45 -2 -40
-4z"/>
<path d="M2233 3089 c-38 -24 -44 -36 -10 -18 12 7 33 18 47 26 14 7 18 13 10
13 -8 0 -30 -10 -47 -21z"/>
<path d="M2763 3093 c15 -2 39 -2 55 0 15 2 2 4 -28 4 -30 0 -43 -2 -27 -4z"/>
<path d="M2992 3013 c-7 -2 -17 -14 -23 -26 -11 -21 -10 -20 15 2 14 14 26 26
26 28 0 3 0 3 -18 -4z"/>
<path d="M2925 2910 c-3 -5 1 -10 10 -10 9 0 13 5 10 10 -3 6 -8 10 -10 10 -2
0 -7 -4 -10 -10z"/>
<path d="M2540 3046 c0 -8 5 -18 10 -21 6 -4 17 -21 25 -38 9 -18 13 -24 10
-14 -8 29 5 19 19 -15 l14 -31 7 32 c6 28 9 30 23 20 10 -7 6 -1 -8 13 -21 21
-26 23 -32 9 -4 -9 -7 -11 -7 -3 -1 6 -8 12 -16 12 -9 0 -20 11 -25 25 -11 28
-20 33 -20 11z"/>
<path d="M2571 3056 c2 -2 15 -9 29 -15 24 -11 24 -11 6 3 -16 13 -49 24 -35
12z"/>
<path d="M2791 2894 c0 -11 3 -14 6 -6 3 7 2 16 -1 19 -3 4 -6 -2 -5 -13z"/>
<path d="M1961 2864 c0 -11 3 -14 6 -6 3 7 2 16 -1 19 -3 4 -6 -2 -5 -13z"/>
<path d="M2560 2870 c8 -5 22 -10 30 -10 13 0 13 1 0 10 -8 5 -22 10 -30 10
-13 0 -13 -1 0 -10z"/>
<path d="M1916 2826 c-4 -21 -5 -41 -2 -44 3 -3 7 3 7 14 1 12 4 7 9 -11 7
-27 8 -27 8 -5 0 14 -3 39 -7 55 l-7 30 -8 -39z"/>
<path d="M2269 2808 c-1 -2 -2 -15 -3 -29 -1 -18 2 -25 11 -22 7 3 13 9 13 13
0 5 3 15 6 24 4 11 1 16 -10 16 -9 0 -17 -1 -17 -2z"/>
<path d="M2851 2724 c0 -11 3 -14 6 -6 3 7 2 16 -1 19 -3 4 -6 -2 -5 -13z"/>
<path d="M1880 2665 c0 -27 2 -46 4 -44 8 8 10 78 3 85 -4 4 -7 -14 -7 -41z"/>
<path d="M1912 2675 c0 -16 2 -22 5 -12 2 9 2 23 0 30 -3 6 -5 -1 -5 -18z"/>
<path d="M2012 2680 c0 -14 2 -19 5 -12 2 6 2 18 0 25 -3 6 -5 1 -5 -13z"/>
<path d="M2583 2650 c0 -30 2 -43 4 -27 2 15 2 39 0 55 -2 15 -4 2 -4 -28z"/>
<path d="M2160 2586 c-25 -59 -25 -59 3 -44 12 7 26 11 30 10 16 -4 17 25 3
53 l-15 29 -21 -48z"/>
<path d="M2637 2540 c-4 -14 -6 -36 -6 -50 1 -22 2 -20 10 8 6 19 9 41 7 50
-3 12 -6 10 -11 -8z"/>
<path d="M2601 2536 c-12 -15 -34 -126 -26 -135 3 -2 5 -2 6 0 0 2 8 36 19 74
10 39 17 71 15 73 -1 1 -7 -4 -14 -12z"/>
<path d="M2175 2518 c-4 -16 -11 -25 -16 -22 -5 3 -9 1 -9 -5 0 -5 4 -12 8
-15 12 -7 36 39 29 56 -2 7 -8 2 -12 -14z"/>
<path d="M2437 2503 c-2 -21 0 -42 4 -47 5 -6 9 10 9 37 0 57 -6 61 -13 10z"/>
<path d="M1984 2437 c17 -34 32 -59 34 -56 5 11 -46 119 -56 119 -5 0 5 -28
22 -63z"/>
<path d="M2606 2408 c-3 -13 -7 -45 -10 -73 -5 -44 -4 -47 6 -25 7 14 15 27
19 30 3 3 9 23 12 45 6 39 6 39 -9 15 l-15 -25 6 28 c3 15 3 27 0 27 -2 0 -7
-10 -9 -22z"/>
<path d="M2140 2399 c0 -5 5 -7 10 -4 6 3 10 8 10 11 0 2 -4 4 -10 4 -5 0 -10
-5 -10 -11z"/>
<path d="M2901 2400 c-1 -8 -4 -26 -7 -40 -5 -22 -4 -23 6 -7 6 10 9 28 7 40
-2 12 -5 15 -6 7z"/>
<path d="M2570 2383 c0 -4 5 -15 10 -23 8 -13 10 -13 10 2 0 9 -4 20 -10 23
-5 3 -10 3 -10 -2z"/>
<path d="M2717 2351 c-9 -16 -17 -33 -17 -38 0 -4 9 7 21 26 11 18 18 35 17
37 -2 2 -12 -10 -21 -25z"/>
<path d="M2555 2259 c-4 -6 -13 -8 -21 -5 -8 3 -14 1 -14 -4 0 -15 26 -12 40
5 7 8 10 15 7 15 -3 0 -9 -5 -12 -11z"/>
<path d="M2400 2222 c0 -5 11 -14 25 -20 26 -12 33 -4 13 16 -14 14 -38 16
-38 4z"/>
<path d="M2255 2210 c-3 -6 1 -7 9 -4 18 7 21 14 7 14 -6 0 -13 -4 -16 -10z"/>
<path d="M2806 2172 c-22 -27 -24 -32 -7 -17 20 17 47 55 39 55 -2 0 -16 -17
-32 -38z"/>
<path d="M2408 2183 c7 -3 16 -2 19 1 4 3 -2 6 -13 5 -11 0 -14 -3 -6 -6z"/>
<path d="M2272 2168 c-13 -13 -16 -38 -6 -38 8 0 33 32 34 43 0 11 -15 8 -28
-5z"/>
<path d="M2410 2140 l34 -32 -24 -14 c-14 -7 -37 -13 -51 -14 -15 0 -33 -8
-40 -17 -11 -15 -11 -16 1 -5 20 17 35 15 20 -3 -11 -13 -10 -14 3 -9 8 3 24
1 35 -5 17 -9 19 -8 15 8 -3 12 5 24 22 35 19 12 25 24 22 37 -5 17 -3 18 9 8
12 -10 13 -8 6 12 -7 19 -18 25 -47 27 l-39 3 34 -31z"/>
<path d="M2510 2150 c-11 -11 -20 -27 -20 -36 0 -15 2 -15 23 -1 12 8 22 18
22 23 0 5 4 15 8 22 13 19 -11 14 -33 -8z"/>
<path d="M2290 2131 c0 -5 5 -11 11 -13 7 -2 7 -12 0 -31 -6 -15 -7 -27 -2
-27 10 0 23 59 15 71 -7 12 -24 12 -24 0z"/>
<path d="M2348 2093 c6 -2 18 -2 25 0 6 3 1 5 -13 5 -14 0 -19 -2 -12 -5z"/>
<path d="M2457 2040 c-3 -11 -1 -20 4 -20 5 0 9 9 9 20 0 11 -2 20 -4 20 -2 0
-6 -9 -9 -20z"/>
<path d="M2535 2051 c-6 -5 -19 -11 -30 -14 -20 -5 -19 -5 1 -6 11 0 29 6 40
14 10 8 14 15 9 15 -6 0 -15 -4 -20 -9z"/>
<path d="M2360 2035 c0 -2 10 -10 23 -16 20 -11 21 -11 8 4 -13 16 -31 23 -31
12z"/>
<path d="M1322 1980 c0 -19 2 -27 5 -17 2 9 2 25 0 35 -3 9 -5 1 -5 -18z"/>
<path d="M2321 1794 c0 -11 3 -14 6 -6 3 7 2 16 -1 19 -3 4 -6 -2 -5 -13z"/>
<path d="M2320 1750 c6 -11 18 -24 26 -27 28 -10 24 3 -7 26 -30 23 -31 23
-19 1z"/>
<path d="M2622 1678 c-34 -55 -63 -82 -73 -67 -4 7 -5 18 -2 24 3 5 0 5 -7 -2
-21 -20 5 -45 33 -32 23 11 83 96 74 105 -2 3 -14 -10 -25 -28z"/>
<path d="M2629 1643 c-13 -16 -12 -17 4 -4 16 13 21 21 13 21 -2 0 -10 -8 -17
-17z"/>
</g>
</svg>
